PathFileType	4	(X/Y/Z)	Patient4_TMGait_0pt6_01_right_10.trc.trc
DataRate	CameraRate	NumFrames	NumMarkers	Units	OrigDataRate	OrigDataStartFrame	OrigNumFrames
82.352941176471	82.352941176471	6	33	mm	82.352941176471	36	       141
Frame#	Time	Sacral			L.Shoulder			Chest			R.Shoulder			Neck			R.ASIS			L.ASIS			R.Thigh.Superior			R.Thigh.Lateral			R.Thigh.Inferior			R.Patella			L.Thigh.Superior			L.Thigh.Lateral			L.Thigh.Inferior			L.Patella			L.Shank.Superior			L.Shank.Lateral			L.Shank.Inferior			R.Shank.Superior			R.Shank.Lateral			R.Shank.Inferior			R.Heel			R.Midfoot.Superior			R.Midfoot.Lateral			R.Toe			L.Heel			L.Midfoot.Lateral			L.Midfoot.Superior			L.Toe			L.Elbow			L.Wrist			R.Elbow			R.Wrist			
		X1	Y1	Z1	X2	Y2	Z2	X3	Y3	Z3	X4	Y4	Z4	X5	Y5	Z5	X6	Y6	Z6	X7	Y7	Z7	X8	Y8	Z8	X9	Y9	Z9	X10	Y10	Z10	X11	Y11	Z11	X12	Y12	Z12	X13	Y13	Z13	X14	Y14	Z14	X15	Y15	Z15	X16	Y16	Z16	X17	Y17	Z17	X18	Y18	Z18	X19	Y19	Z19	X20	Y20	Z20	X21	Y21	Z21	X22	Y22	Z22	X23	Y23	Z23	X24	Y24	Z24	X25	Y25	Z25	X26	Y26	Z26	X27	Y27	Z27	X28	Y28	Z28	X29	Y29	Z29	X30	Y30	Z30	X31	Y31	Z31	X32	Y32	Z32	X33	Y33	Z33	

36	11.985000000000	647.818460367668	995.727932396519	474.619260994719	797.012129822013	1425.317284585807	276.777589731288	902.012832348676	1367.453250689083	440.296190879153	813.329876009218	1441.288182581232	610.626438079033	778.027047240951	1490.424487799005	426.803493752233	879.751534295615	938.292109621874	585.767573934461	860.322749972665	963.333677258961	311.811055826276	944.186158360793	749.929562244511	552.628173658905	880.398854263688	631.349767147933	615.572775866681	964.223660082358	588.655454230772	534.868000714589	978.489783027081	497.407268185612	542.864259065388	882.383340233550	737.924248273915	330.182724277796	774.785091816300	632.869665834917	273.638937457006	855.047146288888	541.245888408838	324.358118119324	843.178263827903	460.025748926808	323.661409729288	782.611914521251	401.370554670454	323.204706369414	647.055057908129	336.041033794666	287.153469196010	658.510558156671	207.976274118534	346.276149472293	950.133572404105	406.942190664358	549.850207820139	880.660866112067	302.304101600319	610.511414799071	924.715612796827	207.660750590363	550.226790846455	794.337754547325	42.214056321788	520.097478629441	963.539080269827	98.124591793904	559.828907875927	875.037871462578	36.970466001006	597.583589461439	1083.203685840072	44.659501608559	594.154356199574	485.657755415328	101.166746360641	398.899775869179	550.094225977660	66.485889414468	319.566391130587	648.723072966616	105.607942115896	334.093374925343	753.429853211550	35.212151482002	312.937336081900	836.625701495277	1072.650268306928	162.878824309747	1019.025254272486	885.872566405263	159.620754754372	722.318841263392	1115.120132963148	745.049078164926	773.644917702669	858.360485333596	758.764325321667	
37	11.997142857143	648.121449197897	996.871048949660	477.702962169424	796.750220164225	1425.997409621924	278.526005148331	902.731734670093	1368.147349832698	441.473583556939	815.272125869333	1442.285519281787	612.225592282214	778.859636869322	1491.224599545759	428.694291122120	880.356124004709	939.454592472209	588.061100345870	859.471470283536	963.620804594379	314.364637834287	942.737624753241	749.237227118031	555.748711853935	876.559524916033	631.341157937999	617.522592415601	960.193946330192	587.979787616072	537.011911317029	973.039070771761	496.775947281872	544.185907026205	886.996270705046	739.829604358144	332.339331373952	783.567824658678	632.435157708964	274.466313869625	866.684731503427	542.259257236687	324.860752396938	855.711521646996	459.684443665226	323.075601501795	792.710431717234	401.436967972400	322.846491436404	654.860535080470	341.208838094667	286.630311364577	661.469019499591	212.706087523001	344.975410109277	944.441421270989	406.555577300540	550.952944266942	874.588825331340	302.040417653135	611.332297984756	918.227242417774	207.441009663097	550.634107050361	787.158942075357	42.193460766726	520.242924217347	956.592092104267	98.003649083561	560.154090691435	867.835611820141	36.937234062170	597.703349414490	1076.059253361261	44.366229998622	594.309130610266	484.590510824113	115.275796795140	397.080973023903	546.757977778001	75.669435270574	318.415184647832	647.273711159309	108.879321995215	332.574017737704	746.337218314368	34.050577622234	313.019423781575	833.622535842850	1072.564503501867	166.256385707493	1004.669438595123	875.293181313963	160.703639747642	730.497699003202	1114.477344442260	748.293076795889	794.933959413448	860.601620941810	759.481848172983	
38	12.009285714286	648.220938501918	997.849786926573	480.665614649011	796.392149533897	1426.442217690854	280.190663356462	903.359973522456	1368.617706286856	442.581086789892	817.127737359281	1443.070682905487	613.755338543354	779.634281637103	1491.820740407258	430.550187650161	880.768956316705	940.406903018648	590.286813271536	858.422448581088	963.683917342842	316.858264869351	941.149883743108	748.427721947008	558.797854917905	872.684356501122	631.273151309007	619.414677198489	956.061219862608	587.268710209150	539.033527251339	967.506058477879	496.110945458050	545.445707025805	891.826430870183	741.889714769527	334.650232631754	793.055638293993	632.113237929451	275.307466108536	878.870618583957	543.622158253968	325.809175021508	868.916894900015	459.748443771437	323.147346817020	803.682754265528	401.799414215727	322.873131831864	663.851245311678	346.734659084522	286.065669993567	665.414152696689	218.061765047563	343.811248090964	938.672949666693	406.126362189586	552.035176693100	868.422978773743	301.738431385752	612.152109729195	911.666377463996	207.186109572803	551.035201007521	779.897110477570	42.153822524603	520.371447437904	949.565248985305	97.835102023735	560.444841988726	860.553169884838	36.886667960737	597.818588722704	1068.838575772576	44.053264106644	594.426106040804	484.792193093106	130.751598305482	395.021648571437	544.411095521071	86.242674201689	317.057913437792	646.574714077836	112.929180742077	331.158346175115	739.373393641355	32.791804293314	313.112897871136	830.221573100195	1072.203514206393	169.593339507096	989.395809724454	865.278009854570	161.929098909611	738.785748311125	1113.826478624352	751.608067901268	816.954638002194	863.786228787572	759.893451656913	
39	12.021428571429	648.112023752002	998.652782047559	483.475296066346	795.967569325989	1426.651464913302	281.746807705663	903.901695619035	1368.849041656282	443.602403304724	818.885948216823	1443.625818705234	615.198602149709	780.357621579162	1492.216326910721	432.337275510977	880.988156888420	941.138730844071	592.423843765955	857.235862844984	963.537979053038	319.237042102550	939.456601925722	747.551076746615	561.649811253547	868.925021632004	631.175986876462	621.229776920309	951.916361708430	586.541509528133	540.868156882742	961.995385573191	495.424654044140	546.625305791032	896.745905219282	744.134422675352	337.146175675307	803.062047507047	631.997150066500	276.239821374802	891.338261184376	545.408055901018	327.315765575298	882.570694013701	460.299041483030	323.969605522001	815.325112628600	402.526214394928	323.380027359295	673.850798681669	352.572723131147	285.559335914885	670.289156408856	223.979944026481	342.876099620232	932.919640640806	405.656303237948	553.076523990506	862.252249401617	301.412952648119	612.966690911449	905.084450529453	206.897770815891	551.426828044660	772.576061598866	42.102662749121	520.491021947231	942.462176622066	97.646600371599	560.692512643309	853.213174294380	36.826684721914	597.937122504121	1061.562070446771	43.742686845872	594.519503880043	486.308603922511	147.226929162359	392.801455286361	543.194813216506	98.009759309287	315.540029102735	646.694417986113	117.767636094231	329.908077709343	732.759956467853	31.492438816234	313.195845539353	826.339631271315	1071.559703856006	172.855148702087	973.326781677397	855.944093287176	163.329376741146	747.216415071335	1113.140205471252	754.944932993897	839.565871428862	867.992242013048	759.930607155574	
40	12.033571428571	647.800363140469	999.288716099861	486.110640442732	795.504180681220	1426.649919725779	283.176796923887	904.360337943713	1368.851838889147	444.525318571881	820.539242518713	1443.960168000409	616.541098966032	781.035608556766	1492.435262571320	434.021495900006	881.019163183872	941.661174524623	594.451544443184	855.967381433364	963.223740758957	321.455759358071	937.685610893716	746.655995856869	564.211530557682	865.370250574902	631.072695254931	622.948177152514	947.819473841008	585.814149674364	542.478816576589	956.575950942102	494.729042052126	547.706230742285	901.624850921960	746.597426852523	339.852650131557	813.378769905743	632.181164905031	277.332007104527	903.826013618013	547.680935026226	329.441057538820	896.444252551414	461.406084051250	325.563104838177	827.423631326454	403.678152651240	324.415926397441	684.650005163871	358.651491117619	285.208882041083	676.031744131502	230.347201692745	342.247622000409	927.241463430298	405.151839082123	554.057129498524	856.135130000439	301.079248630034	613.765001886057	898.515970881092	206.582658034188	551.805276618798	765.219078616823	42.047603623112	520.607308231192	935.292169678635	97.461056643304	560.895538617095	845.837850246337	36.763788290421	598.063541006155	1054.249423761411	43.455122788557	594.601847606740	489.148143528085	164.188021191450	390.535316784480	543.246570270113	110.631690736338	313.932906674459	647.731882842667	123.329804961091	328.872565725161	726.821027506973	30.260472670918	313.238977916160	821.906535836265	1070.663596004262	176.013212027109	956.600098293808	847.388377044526	164.937753092358	755.831955681466	1112.413456991422	758.244357775366	862.614990151237	873.299771661887	759.522658540811	
41	12.045714285714	647.301885428534	999.785200010961	488.562057048708	795.023533823673	1426.483840530109	284.472616077159	904.739284029000	1368.660093391809	445.342523707882	822.085768911303	1444.107337866559	617.772800462348	781.674489089775	1492.516736999786	435.574843146746	880.874060872599	942.002776829180	596.347339888692	854.658273377690	962.800447946851	323.482840747947	935.855601568450	745.782099536769	566.428885465966	862.040873764501	630.979666454611	624.550405010685	943.793072000562	585.097798912470	543.854619794677	951.273643849152	494.034910777095	548.671059300579	906.341073082647	749.309210873781	342.783093363816	823.789757107074	632.749980497564	278.633542976621	916.095042591061	550.487102677821	332.183157787203	910.315422891416	463.122445957273	327.878350404616	839.769955748341	405.300519158188	325.978564735727	696.024439671046	364.868256320443	285.100384896980	682.588485864167	236.996560505308	341.980329683730	921.661455609508	404.623389629715	554.958897791895	850.095946893087	300.751450602813	614.531606740382	891.975470399693	206.251017402265	552.166121507230	757.844845624404	41.995354477415	520.723343750540	928.067449833148	97.294473811742	561.057731812711	838.445682331148	36.702714940163	598.199392305581	1046.916779468481	43.206326927262	594.682389191289	493.289026883593	180.989909251866	388.364668178026	544.699271314984	123.631452616008	312.328493360059	649.822862273775	129.465369203270	328.083523524341	721.990299871693	29.243704348094	313.204235649180	816.872386302889	1069.581074038446	179.046256126921	939.364253329265	839.687766175119	166.785371181385	764.675591562265	1111.665134981832	761.440229082883	885.937807602734	879.787486114258	758.602118286456	
